<svg width="253" height="223" viewBox="0 0 253 223" fill="none" xmlns="http://www.w3.org/2000/svg">
<path d="M4 90L126 3L181 40V18H222V62L250 90L229.5 110.5V215C186.761 225.622 163.789 223.382 126 193C86.6515 220.355 65.8564 225.092 31 215V110.5L4 90Z" fill="#FF4646"/>
<path d="M126 193C163.789 223.382 186.761 225.622 229.5 215V110.5L250 90L222 62V18H181V40L126 3L4 90L31 110.5V215C65.8564 225.092 86.6515 220.355 126 193ZM126 193C84.5168 164.688 63.5765 148.192 57 110.5C73.27 68.7452 89.3113 67.2083 126 90C165.086 65.354 179.35 72.1114 195 110.5C188.187 152.072 168.77 168.133 126 193Z" stroke="#71A1FF" stroke-width="4"/>
</svg>
