<svg width="263" height="230" viewBox="0 0 263 230" fill="none" xmlns="http://www.w3.org/2000/svg">
<path d="M9 94L131 7L186 44V22H227V66L255 94L234.5 114.5V219C191.761 229.622 168.789 227.382 131 197C91.6515 224.355 70.8564 229.092 36 219V114.5L9 94Z" fill="#FC3A1F"/>
<path d="M131 197C168.789 227.382 191.761 229.622 234.5 219V114.5L255 94L227 66V22H186V44L131 7L9 94L36 114.5V219C70.8564 229.092 91.6515 224.355 131 197ZM131 197C89.5168 168.688 68.5765 152.192 62 114.5C78.27 72.7452 94.3113 71.2083 131 94C170.086 69.354 184.35 76.1114 200 114.5C193.187 156.072 173.77 172.133 131 197Z" stroke="black" stroke-width="10"/>
</svg>
